<?xml version="1.0" standalone="no"?><!DOCTYPE svg PUBLIC "-//W3C//DTD SVG 1.1//EN" "http://www.w3.org/Graphics/SVG/1.1/DTD/svg11.dtd" ><svg xmlns="http://www.w3.org/2000/svg"><metadata></metadata><defs><font id="Google:Roboto Condensed Light:2016" horiz-adv-x="1642"><font-face font-family="Roboto Condensed Light" font-weight="300" font-stretch="normal" units-per-em="2048" panose-1="2 0 0 0 0 0 0 0 0 0" ascent="1900" descent="-500" x-height="0" bbox="-61 -470 1527 1861" underline-thickness="100" underline-position="-150" unicode-range="U+0021-2122" /><missing-glyph horiz-adv-x="803" d="M104 0 l0 1456 l595 0 l0 -1456 l-595 0 ZM184 1402 l216 -605 l215 605 l-431 0 ZM424 728 l229 -642 l0 1284 l-229 -642 ZM149 1362 l0 -1268 l226 634 l-226 634 ZM184 54 l431 0 l-215 605 l-216 -605 Z" /><glyph glyph-name="exclam" unicode="!" d="M276 1456 l-7 -1050 l-102 0 l-7 1050 l116 0 ZM150 72 q0 81 73 81 q74 0 74 -81 q0 -81 -74 -81 q-73 0 -73 81 Z" /><glyph glyph-name="quotedbl" unicode="&quot;" d="M244 1536 l0 -139 l-20 -315 l-81 0 l3 308 l0 146 l98 0 ZM479 1536 l0 -139 l-19 -315 l-81 0 l3 312 l0 142 l97 0 Z" /><glyph glyph-name="numbersign" unicode="#" d="M590 0 l65 410 l-256 0 l-65 -410 l-90 0 l65 410 l-212 0 l0 96 l227 0 l70 437 l-233 0 l0 97 l248 0 l66 416 l91 0 l-66 -416 l256 0 l66 416 l91 0 l-67 -416 l188 0 l0 -97 l-203 0 l-70 -437 l210 0 l0 -96 l-225 0 l-66 -410 l-90 0 ZM415 506 l256 0 l69 437 l-256 0 l-69 -437 Z" /><glyph glyph-name="dollar" unicode="$" d="M881 362 q0 -167 -87.5 -266 q-87.5 -99 -234.5 -114 l0 -190 l-93 0 l0 189 q-134 11 -242 109.5 q-108 98.5 -108 328.5 l111 0 q0 -193 91 -262.5 q91 -69.5 189 -69.5 q125 0 194 79.5 q69 79.5 69 193.5 q0 110 -58.5 179.5 q-58.5 69.5 -208.5 133.5 q-160 61 -251.5 152 q-91.5 91 -91.5 269 q0 163 84.5 265 q84.5 102 226.5 116 l0 203 l93 0 l0 -204 q145 -16 226.5 -131 q81.5 -115 81.5 -316 l-110 0 q0 147 -63.5 244.5 q-63.5 97.5 -183.5 97.5 q-125 0 -184.5 -80.5 q-59.5 -80.5 -59.5 -191.5 q0 -109 54 -179 q54 -70 216 -136 q159 -62 249.5 -152 q90.5 -90 90.5 -268 Z" /><glyph glyph-name="percent" unicode="%" d="M111 1099 l0 77 q0 124 65.5 212.5 q65.5 88.5 176.5 88.5 q111 0 176 -88.5 q65 -88.5 65 -212.5 l0 -77 q0 -122 -64.5 -210.5 q-64.5 -88.5 -175.5 -88.5 q-112 0 -177.5 88.5 q-65.5 88.5 -65.5 210.5 ZM199 1176 l0 -77 q0 -79 38 -145 q38 -66 117 -66 q77 0 114.5 65.5 q37.5 65.5 37.5 145.5 l0 77 q0 81 -37.5 147 q-37.5 66 -115.5 66 q-77 0 -115.5 -66 q-38.5 -66 -38.5 -147 ZM984 1259 l-597 -1138 l-67 49 l597 1138 l67 -49 ZM723 279 l0 78 q0 123 65.5 211.5 q65.5 88.5 175.5 88.5 q112 0 177 -88.5 q65 -88.5 65 -211.5 l0 -78 q0 -123 -65 -211.5 q-65 -88.5 -175 -88.5 q-112 0 -177.5 88.5 q-65.5 88.5 -65.5 211.5 ZM811 357 l0 -78 q0 -80 37.5 -146 q37.5 -66 117.5 -66 q77 0 114.5 65.5 q37.5 65.5 37.5 146.5 l0 78 q0 85 -38 148.5 q-38 63.5 -116 63.5 q-76 0 -114.5 -63.5 q-38.5 -63.5 -38.5 -148.5 Z" /><glyph glyph-name="ampersand" unicode="&amp;" d="M927 0 l-102 143 q-140 -163 -332 -163 q-178 0 -280.5 108 q-102.5 108 -102.5 284 q0 131 69 227 q69 96 172 187 l8 7 q-65 95 -103.5 178 q-38.5 83 -38.5 173 q0 154 78 243.5 q78 89.5 208 89.5 q126 0 196.5 -85 q70.5 -85 70.5 -202 q0 -98 -50.5 -174 q-50.5 -76 -113.5 -132 l-109 -98 l328 -458 q33 67 52 149 q19 82 19 176 l102 0 q0 -249 -107 -417 l169 -236 l-133 0 ZM329 1148 q0 -64 29 -134 q29 -70 82 -148 l105 95 q53 47 87 101 q34 54 34 128 q0 70 -42 126.5 q-42 56.5 -121 56.5 q-85 0 -129.5 -66.5 q-44.5 -66.5 -44.5 -158.5 ZM221 372 q0 -115 66.5 -201.5 q66.5 -86.5 205.5 -86.5 q154 0 270 145 l-337 471 q-5 7 -9 13 l-38 -34 q-105 -103 -131.5 -180 q-26.5 -77 -26.5 -127 Z" /><glyph glyph-name="quotesingle" unicode="&#39;" d="M227 1536 l0 -139 l-18 -308 l-89 0 l5 299 l0 148 l102 0 Z" /><glyph glyph-name="parenleft" unicode="(" d="M137 574 l0 15 q0 261 61 475 q61 214 150.5 361 q89.5 147 174.5 208 l26 -83 q-109 -93 -205 -349.5 q-96 -256.5 -96 -608.5 l0 -20 q0 -352 96 -609 q96 -257 205 -355 l-26 -78 q-85 62 -174.5 206 q-89.5 144 -150.5 357 q-61 213 -61 481 Z" /><glyph glyph-name="parenright" unicode=")" d="M460 589 l0 -15 q0 -268 -61 -481 q-61 -213 -150 -357 q-89 -144 -174 -206 l-26 78 q109 94 204.5 353 q95.5 259 95.5 611 l0 20 q0 235 -46.5 430.5 q-46.5 195.5 -115.5 333 q-69 137.5 -138 199.5 l26 78 q85 -61 174 -208 q89 -147 150 -361 q61 -214 61 -475 Z" /><glyph glyph-name="asterisk" unicode="*" d="M144 701 l218 299 l-333 107 l33 103 l331 -122 l-4 368 l105 0 l-9 -371 l325 126 l33 -104 l-334 -113 l224 -294 l-86 -64 l-214 305 l-204 -303 l-85 63 Z" /><glyph glyph-name="plus" unicode="+" d="M922 627 l-366 0 l0 -481 l-112 0 l0 481 l-360 0 l0 115 l360 0 l0 464 l112 0 l0 -464 l366 0 l0 -115 Z" /><glyph glyph-name="comma" unicode="," d="M272 190 l0 -140 q0 -196 -140 -323 l-71 52 q46 63 69.5 126 q23.5 63 23.5 142 l0 143 l118 0 Z" /><glyph glyph-name="hyphen" unicode="-" d="M463 694 l0 -104 l-403 0 l0 104 l403 0 Z" /><glyph glyph-name="period" unicode="." d="M146 74 q0 35 22 60 q22 25 62 25 q40 0 63 -25 q23 -25 23 -60 q0 -83 -86 -83 q-84 0 -84 83 Z" /><glyph glyph-name="slash" unicode="/" d="M653 1456 l-510 -1581 l-99 0 l510 1581 l99 0 Z" /><glyph glyph-name="zero" unicode="0" d="M876 853 l0 -245 q0 -322 -99.5 -475 q-99.5 -153 -277.5 -153 q-175 0 -277 153 q-102 153 -102 475 l0 245 q0 322 101 473 q101 151 277 151 q177 0 277.5 -151 q100.5 -151 100.5 -473 ZM765 594 l0 275 q0 504 -267 504 q-267 0 -267 -504 l0 -275 q0 -245 68 -377.5 q68 -132.5 200 -132.5 q133 0 199.5 132.5 q66.5 132.5 66.5 377.5 Z" /><glyph glyph-name="one" unicode="1" d="M609 1462 l0 -1462 l-111 0 l0 1309 l-329 -147 l0 115 l421 185 l19 0 Z" /><glyph glyph-name="two" unicode="2" d="M906 104 l0 -104 l-773 0 l0 94 l400 541 q113 151 157 250 q44 99 44 190 q0 131 -63.5 214 q-63.5 83 -183.5 83 q-127 0 -198 -95 q-71 -95 -71 -241 l-111 0 q0 181 100 310.5 q100 129.5 280 129.5 q167 0 263 -103.5 q96 -103.5 96 -286.5 q0 -132 -72.5 -266 q-72.5 -134 -166.5 -259 l-339 -457 l638 0 Z" /><glyph glyph-name="three" unicode="3" d="M461 690 l-104 0 l0 105 l104 0 q137 0 207 82.5 q70 82.5 70 199.5 q0 131 -60.5 213 q-60.5 82 -187.5 82 q-112 0 -186 -80 q-74 -80 -74 -218 l-111 0 q0 177 105.5 289.5 q105.5 112.5 265.5 112.5 q162 0 260.5 -105 q98.5 -105 98.5 -298 q0 -97 -51.5 -188.5 q-51.5 -91.5 -154.5 -137.5 q121 -40 174.5 -135 q53.5 -95 53.5 -216 q0 -199 -107.5 -307.5 q-107.5 -108.5 -270.5 -108.5 q-151 0 -271 104 q-120 104 -120 311 l112 0 q0 -138 77 -224.5 q77 -86.5 202 -86.5 q126 0 196.5 79.5 q70.5 79.5 70.5 228.5 q0 157 -83 227.5 q-83 70.5 -216 70.5 Z" /><glyph glyph-name="four" unicode="4" d="M74 437 l563 1019 l120 0 l0 -985 l187 0 l0 -104 l-187 0 l0 -367 l-111 0 l0 367 l-572 0 l0 70 ZM208 471 l438 0 l0 817 l-40 -81 l-398 -736 Z" /><glyph glyph-name="five" unicode="5" d="M290 719 l-88 27 l60 710 l615 0 l0 -113 l-520 0 l-42 -488 q32 27 91 53 q59 26 134 26 q165 0 264 -126 q99 -126 99 -344 q0 -209 -89 -346.5 q-89 -137.5 -281 -137.5 q-146 0 -252.5 99 q-106.5 99 -121.5 304 l106 0 q29 -299 268 -299 q127 0 193 98.5 q66 98.5 66 279.5 q0 154 -71 257.5 q-71 103.5 -202 103.5 q-86 0 -135.5 -28 q-49.5 -28 -93.5 -76 Z" /><glyph glyph-name="six" unicode="6" d="M891 478 q0 -210 -96.5 -354 q-96.5 -144 -269.5 -144 q-187 0 -291 158.5 q-104 158.5 -104 377.5 l0 127 q0 370 139 597 q139 227 446 227 l14 0 l0 -107 l-14 0 q-221 0 -339.5 -154 q-118.5 -154 -132.5 -418 q105 168 296 168 q177 0 264.5 -143 q87.5 -143 87.5 -335 ZM241 514 q0 -202 83.5 -316 q83.5 -114 200.5 -114 q120 0 188 114 q68 114 68 275 q0 153 -64 265.5 q-64 112.5 -196 112.5 q-96 0 -175 -68.5 q-79 -68.5 -105 -168.5 l0 -100 Z" /><glyph glyph-name="seven" unicode="7" d="M893 1456 l0 -70 l-519 -1386 l-116 0 l516 1352 l-689 0 l0 104 l808 0 Z" /><glyph glyph-name="eight" unicode="8" d="M889 387 q0 -199 -112.5 -303 q-112.5 -104 -276.5 -104 q-165 0 -277.5 104 q-112.5 104 -112.5 303 q0 127 62.5 222.5 q62.5 95.5 165.5 138.5 q-90 43 -143.5 130.5 q-53.5 87.5 -53.5 202.5 q0 191 101.5 293 q101.5 102 255.5 102 q154 0 257 -102 q103 -102 103 -293 q0 -115 -55 -202.5 q-55 -87.5 -145 -130.5 q104 -43 167.5 -138.5 q63.5 -95.5 63.5 -222.5 ZM747 1082 q0 127 -71.5 208.5 q-71.5 81.5 -177.5 81.5 q-107 0 -176.5 -78 q-69.5 -78 -69.5 -212 q0 -130 69 -206.5 q69 -76.5 178 -76.5 q107 0 177.5 76.5 q70.5 76.5 70.5 206.5 ZM777 386 q0 140 -79.5 224.5 q-79.5 84.5 -199.5 84.5 q-122 0 -199.5 -84.5 q-77.5 -84.5 -77.5 -224.5 q0 -145 77.5 -223.5 q77.5 -78.5 201.5 -78.5 q122 0 199.5 78.5 q77.5 78.5 77.5 223.5 Z" /><glyph glyph-name="nine" unicode="9" d="M866 781 q0 -215 -48 -395 q-48 -180 -172 -288.5 q-124 -108.5 -351 -108.5 l-21 0 l1 107 l20 0 q256 0 355 163 q99 163 105 406 q-50 -84 -128 -135.5 q-78 -51.5 -171 -51.5 q-116 0 -194 70 q-78 70 -117.5 181.5 q-39.5 111.5 -39.5 236.5 q0 209 97.5 359.5 q97.5 150.5 273.5 150.5 q200 0 295 -164 q95 -164 95 -417 l0 -114 ZM214 971 q0 -149 65.5 -268.5 q65.5 -119.5 191.5 -119.5 q108 0 181.5 78 q73.5 78 102.5 173 l0 73 q0 229 -78.5 346.5 q-78.5 117.5 -198.5 117.5 q-124 0 -194 -119.5 q-70 -119.5 -70 -280.5 Z" /><glyph glyph-name="colon" unicode=":" d="M131 74 q0 35 22 60 q22 25 62 25 q40 0 63 -25 q23 -25 23 -60 q0 -83 -86 -83 q-84 0 -84 83 ZM133 996 q0 35 22 60 q22 25 62 25 q40 0 63 -25 q23 -25 23 -60 q0 -83 -86 -83 q-84 0 -84 83 Z" /><glyph glyph-name="semicolon" unicode=";" d="M122 996 q0 35 22 60 q22 25 62 25 q40 0 63 -25 q23 -25 23 -60 q0 -83 -86 -83 q-84 0 -84 83 ZM274 190 l0 -140 q0 -196 -140 -323 l-71 52 q46 63 69.5 126 q23.5 63 23.5 142 l0 143 l118 0 Z" /><glyph glyph-name="less" unicode="&lt;" d="M778 228 l-694 379 l0 99 l694 378 l0 -128 l-576 -301 l576 -298 l0 -129 Z" /><glyph glyph-name="equal" unicode="=" d="M847 937 l0 -109 l-701 0 l0 109 l701 0 ZM847 526 l0 -109 l-701 0 l0 109 l701 0 Z" /><glyph glyph-name="greater" unicode="&gt;" d="M126 1086 l711 -378 l0 -99 l-711 -379 l0 127 l590 303 l-590 300 l0 126 Z" /><glyph glyph-name="question" unicode="?" d="M444 405 l-111 0 q1 128 31.5 201 q30.5 73 108.5 163 q65 79 108.5 146 q43.5 67 43.5 186 q0 119 -52.5 193 q-52.5 74 -153.5 74 q-93 0 -155 -67 q-62 -67 -64 -185 l-111 0 q2 171 97.5 265.5 q95.5 94.5 232.5 94.5 q152 0 234.5 -103.5 q82.5 -103.5 82.5 -269.5 q0 -133 -57.5 -230.5 q-57.5 -97.5 -143.5 -192.5 q-53 -54 -72 -124.5 q-19 -70.5 -19 -150.5 ZM321 72 q0 81 73 81 q74 0 74 -81 q0 -81 -74 -81 q-73 0 -73 81 Z" /><glyph glyph-name="at" unicode="@" d="M1082 -364 q-56 -44 -144 -66.5 q-88 -22.5 -164 -22.5 q-320 0 -493.5 250.5 q-173.5 250.5 -158.5 680.5 q10 280 102 492 q92 212 251 331.5 q159 119.5 370 119.5 q333 0 495.5 -245.5 q162.5 -245.5 148.5 -662.5 q-4 -125 -38.5 -248 q-34.5 -123 -106 -204 q-71.5 -81 -186.5 -81 q-164 0 -201 191 q-92 -191 -246 -191 q-120 0 -177.5 122.5 q-57.5 122.5 -41.5 324.5 q20 258 125 410 q105 152 239 152 q86 0 135.5 -32.5 q49.5 -32.5 94.5 -75.5 l-43 -569 q-11 -160 38 -202.5 q49 -42.5 89 -42.5 q110 0 169 128.5 q59 128.5 66 317.5 q15 378 -120 595.5 q-135 217.5 -444 217.5 q-269 0 -441 -231.5 q-172 -231.5 -187 -616.5 q-15 -373 133 -606.5 q148 -233.5 432 -233.5 q163 0 277 79 l27 -81 ZM590 427 q-14 -155 23 -251 q37 -96 121 -96 q57 0 117.5 51.5 q60.5 51.5 100.5 197.5 l39 522 q-55 45 -128 45 q-99 0 -176.5 -115.5 q-77.5 -115.5 -96.5 -353.5 Z" /><glyph glyph-name="A" unicode="a" d="M45 0 l464 1456 l106 0 l464 -1456 l-119 0 l-125 407 l-546 0 l-125 -407 l-119 0 ZM322 514 l480 0 l-240 782 l-240 -782 Z" /><glyph glyph-name="B" unicode="b" d="M983 411 q0 -199 -109 -305 q-109 -106 -285 -106 l-416 0 l0 1456 l368 0 q187 0 293.5 -91 q106.5 -91 106.5 -290 q0 -236 -196 -315 q110 -28 174 -125 q64 -97 64 -224 ZM287 1349 l0 -544 l264 0 q130 0 202.5 69.5 q72.5 69.5 72.5 203.5 q0 271 -285 271 l-254 0 ZM868 409 q0 123 -66 207 q-66 84 -205 84 l-310 0 l0 -593 l302 0 q131 0 205 80.5 q74 80.5 74 221.5 Z" /><glyph glyph-name="C" unicode="c" d="M930 454 l115 0 q-15 -244 -131 -359.5 q-116 -115.5 -322 -115.5 q-210 0 -332.5 159.5 q-122.5 159.5 -122.5 438.5 l0 312 q0 274 123.5 430.5 q123.5 156.5 340.5 156.5 q198 0 313.5 -114 q115.5 -114 130.5 -362 l-115 0 q-15 200 -94.5 284.5 q-79.5 84.5 -234.5 84.5 q-169 0 -259 -126.5 q-90 -126.5 -90 -351.5 l0 -314 q0 -223 85.5 -357 q85.5 -134 254.5 -134 q161 0 241.5 80 q80.5 80 96.5 288 Z" /><glyph glyph-name="D" unicode="d" d="M173 0 l0 1456 l342 0 q232 0 374.5 -150 q142.5 -150 142.5 -432 l0 -292 q0 -283 -143 -432.5 q-143 -149.5 -382 -149.5 l-334 0 ZM515 1349 l-228 0 l0 -1242 l220 0 q197 0 304.5 122.5 q107.5 122.5 107.5 352.5 l0 294 q0 233 -108 353 q-108 120 -296 120 Z" /><glyph glyph-name="E" unicode="e" d="M173 0 l0 1456 l758 0 l0 -107 l-644 0 l0 -545 l564 0 l0 -107 l-564 0 l0 -590 l649 0 l0 -107 l-763 0 Z" /><glyph glyph-name="F" unicode="f" d="M173 0 l0 1456 l757 0 l0 -107 l-643 0 l0 -562 l559 0 l0 -108 l-559 0 l0 -679 l-114 0 Z" /><glyph glyph-name="G" unicode="g" d="M1059 693 l0 -524 q-32 -43 -131.5 -116.5 q-99.5 -73.5 -294.5 -73.5 q-217 0 -351.5 150 q-134.5 150 -134.5 437 l0 335 q0 282 123 428.5 q123 146.5 346 146.5 q205 0 317 -112.5 q112 -112.5 126 -317.5 l-115 0 q-15 151 -91 237 q-76 86 -237 86 q-354 0 -354 -466 l0 -337 q0 -236 99.5 -358 q99.5 -122 271.5 -122 q138 0 212 47.5 q74 47.5 100 74.5 l0 379 l-320 0 l0 106 l434 0 Z" /><glyph glyph-name="H" unicode="h" d="M970 0 l0 697 l-683 0 l0 -697 l-114 0 l0 1456 l114 0 l0 -652 l683 0 l0 652 l115 0 l0 -1456 l-115 0 Z" /><glyph glyph-name="I" unicode="i" d="M308 1456 l0 -1456 l-115 0 l0 1456 l115 0 Z" /><glyph glyph-name="J" unicode="j" d="M708 434 l0 1022 l114 0 l0 -1022 q0 -220 -106 -337 q-106 -117 -266 -117 q-166 0 -269.5 104 q-103.5 104 -103.5 318 l115 0 q0 -157 68.5 -236 q68.5 -79 189.5 -79 q108 0 183 87.5 q75 87.5 75 259.5 Z" /><glyph glyph-name="K" unicode="k" d="M941 0 l-485 719 l-169 -196 l0 -523 l-114 0 l0 1456 l114 0 l0 -774 l160 198 l451 576 l142 0 l-508 -647 l548 -809 l-139 0 Z" /><glyph glyph-name="L" unicode="l" d="M887 107 l0 -107 l-714 0 l0 1456 l115 0 l0 -1349 l599 0 Z" /><glyph glyph-name="M" unicode="m" d="M765 176 l442 1280 l151 0 l0 -1456 l-114 0 l0 634 l10 631 l-445 -1265 l-88 0 l-445 1262 l11 -628 l0 -634 l-114 0 l0 1456 l150 0 l442 -1280 Z" /><glyph glyph-name="N" unicode="n" d="M1089 1456 l0 -1456 l-115 0 l-686 1241 l0 -1241 l-115 0 l0 1456 l115 0 l687 -1241 l0 1241 l114 0 Z" /><glyph glyph-name="O" unicode="o" d="M1075 885 l0 -315 q0 -288 -126 -439.5 q-126 -151.5 -344 -151.5 q-215 0 -343.5 151.5 q-128.5 151.5 -128.5 439.5 l0 315 q0 288 127.5 439.5 q127.5 151.5 342.5 151.5 q219 0 345.5 -151.5 q126.5 -151.5 126.5 -439.5 ZM961 570 l0 317 q0 479 -358 479 q-169 0 -262.5 -120 q-93.5 -120 -93.5 -359 l0 -317 q0 -240 94.5 -360.5 q94.5 -120.5 263.5 -120.5 q356 0 356 481 Z" /><glyph glyph-name="P" unicode="p" d="M596 592 l-309 0 l0 -592 l-114 0 l0 1456 l423 0 q202 0 308.5 -121 q106.5 -121 106.5 -314 q0 -202 -106 -315.5 q-106 -113.5 -309 -113.5 ZM287 1349 l0 -650 l309 0 q160 0 230 92 q70 92 70 228 q0 133 -70 231.5 q-70 98.5 -230 98.5 l-309 0 Z" /><glyph glyph-name="Q" unicode="q" d="M1068 -176 l-79 -79 l-249 252 q-65 -18 -140 -18 q-214 0 -343 151.5 q-129 151.5 -129 440.5 l0 314 q0 288 128 439.5 q128 151.5 343 151.5 q219 0 345.5 -151.5 q126.5 -151.5 126.5 -439.5 l0 -314 q0 -385 -221 -526 l218 -221 ZM957 571 l0 316 q0 479 -358 479 q-169 0 -262.5 -120 q-93.5 -120 -93.5 -359 l0 -316 q0 -241 94.5 -361.5 q94.5 -120.5 262.5 -120.5 q357 0 357 482 Z" /><glyph glyph-name="R" unicode="r" d="M918 0 l-291 606 l-342 0 l0 -606 l-114 0 l0 1456 l399 0 q194 0 305.5 -110 q111.5 -110 111.5 -319 q0 -144 -69 -249.5 q-69 -105.5 -182 -144.5 l304 -620 l0 -13 l-122 0 ZM285 1349 l0 -636 l304 0 q142 0 213 95 q71 95 71 219 q0 149 -77.5 235.5 q-77.5 86.5 -225.5 86.5 l-285 0 Z" /><glyph glyph-name="S" unicode="s" d="M857 359 q0 119 -69.5 189.5 q-69.5 70.5 -256.5 134.5 q-184 62 -291.5 153 q-107.5 91 -107.5 263 q0 169 115 273 q115 104 297 104 q195 0 308 -127 q113 -127 113 -308 l-114 0 q0 142 -80 235 q-80 93 -227 93 q-148 0 -222.5 -78.5 q-74.5 -78.5 -74.5 -188.5 q0 -104 70.5 -177 q70.5 -73 249.5 -131 q197 -63 301.5 -160 q104.5 -97 104.5 -273 q0 -179 -118.5 -280 q-118.5 -101 -303.5 -101 q-109 0 -214.5 45 q-105.5 45 -174.5 141.5 q-69 96.5 -69 250.5 l115 0 q0 -183 109.5 -256.5 q109.5 -73.5 233.5 -73.5 q140 0 223 74.5 q83 74.5 83 197.5 Z" /><glyph glyph-name="T" unicode="t" d="M63 1349 l0 107 l942 0 l0 -107 l-414 0 l0 -1349 l-114 0 l0 1349 l-414 0 Z" /><glyph glyph-name="U" unicode="u" d="M904 1456 l114 0 l0 -1026 q0 -246 -127 -348.5 q-127 -102.5 -306 -102.5 q-184 0 -308 102.5 q-124 102.5 -124 348.5 l0 1026 l114 0 l0 -1026 q0 -190 89.5 -267 q89.5 -77 228.5 -77 q140 0 229.5 77 q89.5 77 89.5 267 l0 1026 Z" /><glyph glyph-name="V" unicode="v" d="M1063 1456 l-455 -1456 l-107 0 l-455 1456 l125 0 l379 -1274 l4 -17 l4 17 l380 1274 l125 0 Z" /><glyph glyph-name="W" unicode="w" d="M1516 1456 l-309 -1456 l-109 0 l-272 1136 l-29 135 l-28 -135 l-280 -1136 l-108 0 l-310 1456 l117 0 l217 -1060 l36 -217 l44 207 l261 1070 l101 0 l257 -1070 l44 -208 l37 219 l215 1059 l116 0 Z" /><glyph glyph-name="X" unicode="x" d="M215 1456 l335 -613 l334 613 l136 0 l-401 -717 l413 -739 l-136 0 l-346 633 l-347 -633 l-136 0 l414 739 l-402 717 l136 0 Z" /><glyph glyph-name="Y" unicode="y" d="M173 1456 l361 -791 l363 791 l132 0 l-438 -908 l0 -548 l-115 0 l0 548 l-437 908 l134 0 Z" /><glyph glyph-name="Z" unicode="z" d="M115 1349 l0 107 l835 0 l0 -90 l-722 -1259 l749 0 l0 -107 l-882 0 l0 95 l721 1254 l-701 0 Z" /><glyph glyph-name="bracketleft" unicode="[" d="M439 1664 l0 -104 l-173 0 l0 -1768 l173 0 l0 -104 l-284 0 l0 1976 l284 0 Z" /><glyph glyph-name="backslash" unicode="\" d="M571 -125 l-511 1581 l107 0 l511 -1581 l-107 0 Z" /><glyph glyph-name="bracketright" unicode="]" d="M22 1560 l0 104 l285 0 l0 -1976 l-285 0 l0 104 l174 0 l0 1768 l-174 0 Z" /><glyph glyph-name="asciicircum" unicode="^" d="M83 729 l251 727 l82 0 l250 -727 l-106 0 l-185 565 l-186 -565 l-106 0 Z" /><glyph glyph-name="underscore" unicode="_" d="M768 0 l0 -104 l-746 0 l0 104 l746 0 Z" /><glyph glyph-name="grave" unicode="`" d="M248 1536 l191 -280 l-109 0 l-227 280 l145 0 Z" /><glyph glyph-name="a" unicode="a" d="M721 0 q-9 28 -14 68.5 q-5 40.5 -7 81.5 q-42 -67 -116.5 -119 q-74.5 -52 -181.5 -52 q-134 0 -215 77 q-81 77 -81 229 q0 150 103 248 q103 98 307 98 l183 0 l0 151 q0 216 -226 216 q-104 0 -169.5 -60 q-65.5 -60 -65.5 -155 l-111 1 q0 125 96.5 221.5 q96.5 96.5 254.5 96.5 q146 0 239 -73 q93 -73 93 -249 l0 -553 q0 -56 7 -116 q7 -60 21 -98 l0 -13 l-117 0 ZM415 88 q106 0 179.5 54.5 q73.5 54.5 104.5 130.5 l0 264 l-167 0 q-156 0 -235.5 -66 q-79.5 -66 -79.5 -177 q0 -206 198 -206 Z" /><glyph glyph-name="b" unicode="b" d="M888 490 q0 -262 -91 -386.5 q-91 -124.5 -257 -124.5 q-101 0 -171 44.5 q-70 44.5 -112 121.5 l-6 -145 l-103 0 l0 1536 l111 0 l0 -605 q43 80 112 125.5 q69 45.5 167 45.5 q167 0 258.5 -120 q91.5 -120 91.5 -391 l0 -101 ZM515 996 q-107 0 -167 -58.5 q-60 -58.5 -89 -134.5 l0 -540 q32 -75 94.5 -126 q62.5 -51 163.5 -51 q259 0 259 404 l0 101 q0 206 -61 305.5 q-61 99.5 -200 99.5 Z" /><glyph glyph-name="c" unicode="c" d="M490 83 q93 0 165.5 53.5 q72.5 53.5 80.5 198.5 l106 0 q-7 -174 -109.5 -265 q-102.5 -91 -242.5 -91 q-391 0 -391 501 l0 122 q0 500 391 500 q148 0 247 -94 q99 -94 105 -291 l-106 0 q-7 151 -76.5 216 q-69.5 65 -169.5 65 q-154 0 -217 -103.5 q-63 -103.5 -63 -292.5 l0 -122 q0 -190 63 -293.5 q63 -103.5 217 -103.5 Z" /><glyph glyph-name="d" unicode="d" d="M744 0 l-5 140 q-42 -75 -111.5 -118 q-69.5 -43 -167.5 -43 q-160 0 -255.5 124.5 q-95.5 124.5 -95.5 386.5 l0 101 q0 271 95 391 q95 120 258 120 q97 0 164.5 -43.5 q67.5 -43.5 110.5 -121.5 l0 599 l111 0 l0 -1536 l-104 0 ZM221 490 q0 -404 261 -404 q99 0 160.5 48 q61.5 48 94.5 121 l0 558 q-30 73 -89.5 128 q-59.5 55 -163.5 55 q-263 0 -263 -405 l0 -101 Z" /><glyph glyph-name="e" unicode="e" d="M828 125 q-44 -59 -121 -102.5 q-77 -43.5 -201 -43.5 q-181 0 -295.5 120 q-114.5 120 -114.5 371 l0 124 q0 271 118 389.5 q118 118.5 273 118.5 q362 0 362 -477 l0 -93 l-642 0 l0 -62 q0 -197 83.5 -292 q83.5 -95 220.5 -95 q160 0 258 116 l59 -74 ZM487 998 q-118 0 -194.5 -83.5 q-76.5 -83.5 -84.5 -278.5 l530 0 l0 28 q-3 158 -64 246 q-61 88 -187 88 Z" /><glyph glyph-name="f" unicode="f" d="M546 982 l-213 0 l0 -982 l-111 0 l0 982 l-149 0 l0 100 l149 0 l0 134 q0 165 73 253 q73 88 201 88 q59 0 107 -17 l-7 -102 q-40 12 -91 12 q-172 0 -172 -234 l0 -134 l213 0 l0 -100 Z" /><glyph glyph-name="g" unicode="g" d="M848 -27 q0 -211 -98 -307.5 q-98 -96.5 -264 -96.5 q-81 0 -172 39.5 q-91 39.5 -146 109.5 l52 80 q111 -126 258 -126 q125 0 192 67.5 q67 67.5 67 229.5 l0 167 q-43 -73 -111.5 -115 q-68.5 -42 -165.5 -42 q-163 0 -257 124.5 q-94 124.5 -94 386.5 l0 101 q0 271 94.5 391 q94.5 120 258.5 120 q98 0 166.5 -45 q68.5 -45 111.5 -126 l5 151 l103 0 l0 -1109 ZM221 490 q0 -404 262 -404 q100 0 161 49 q61 49 93 123 l0 552 q-29 74 -88.5 130 q-59.5 56 -164.5 56 q-263 0 -263 -405 l0 -101 Z" /><glyph glyph-name="h" unicode="h" d="M521 996 q-99 0 -165 -74 q-66 -74 -96 -169 l0 -753 l-111 0 l0 1536 l111 0 l0 -621 q48 85 122 136 q74 51 168 51 q136 0 213 -91.5 q77 -91.5 77 -305.5 l0 -705 l-111 0 l0 706 q0 166 -55.5 228 q-55.5 62 -152.5 62 Z" /><glyph glyph-name="i" unicode="i" d="M144 1394 q0 82 73 82 q74 0 74 -82 q0 -80 -74 -80 q-73 0 -73 80 ZM272 1082 l0 -1082 l-111 0 l0 1082 l111 0 Z" /><glyph glyph-name="j" unicode="j" d="M139 1394 q0 82 73 82 q74 0 74 -82 q0 -80 -74 -80 q-73 0 -73 80 ZM156 1082 l112 0 l0 -1211 q0 -308 -239 -308 q-49 0 -90 19 l1 101 q37 -13 75 -13 q141 0 141 201 l0 1211 Z" /><glyph glyph-name="k" unicode="k" d="M730 0 l-356 542 l-114 -126 l0 -416 l-111 0 l0 1536 l111 0 l0 -976 l93 118 l335 404 l139 0 l-380 -455 l415 -627 l-132 0 Z" /><glyph glyph-name="l" unicode="l" d="M272 1536 l0 -1536 l-111 0 l0 1536 l111 0 Z" /><glyph glyph-name="m" unicode="m" d="M509 996 q-107 0 -167.5 -72.5 q-60.5 -72.5 -85.5 -165.5 l0 -758 l-112 0 l0 1082 l107 0 l4 -160 q45 82 118 131 q73 49 171 49 q97 0 167.5 -47 q70.5 -47 102.5 -152 q43 87 121 143 q78 56 185 56 q143 0 221.5 -93 q78.5 -93 78.5 -303 l0 -706 l-112 0 l0 707 q0 170 -59.5 230 q-59.5 60 -156.5 59 q-120 -1 -183.5 -92 q-63.5 -91 -71.5 -185 l0 -719 l-111 0 l0 716 q0 160 -60 220 q-60 60 -157 60 Z" /><glyph glyph-name="n" unicode="n" d="M521 996 q-99 0 -165 -74 q-66 -74 -96 -169 l0 -753 l-111 0 l0 1082 l106 0 l4 -170 q47 86 121.5 138 q74.5 52 169.5 52 q136 0 213 -91.5 q77 -91.5 77 -305.5 l0 -705 l-111 0 l0 706 q0 166 -55.5 228 q-55.5 62 -152.5 62 Z" /><glyph glyph-name="o" unicode="o" d="M107 485 l0 112 q0 245 109.5 375 q109.5 130 285.5 130 q177 0 286.5 -130 q109.5 -130 109.5 -375 l0 -112 q0 -245 -109.5 -375.5 q-109.5 -130.5 -285.5 -130.5 q-176 0 -286 130.5 q-110 130.5 -110 375.5 ZM218 597 l0 -112 q0 -185 74.5 -293.5 q74.5 -108.5 210.5 -108.5 q144 0 214 108.5 q70 108.5 70 293.5 l0 112 q0 182 -75 291.5 q-75 109.5 -210 109.5 q-135 0 -209.5 -109.5 q-74.5 -109.5 -74.5 -291.5 Z" /><glyph glyph-name="p" unicode="p" d="M539 -21 q-97 0 -166.5 40.5 q-69.5 40.5 -113.5 110.5 l0 -546 l-111 0 l0 1498 l103 0 l6 -147 q43 79 112.5 123 q69.5 44 167.5 44 q168 0 259 -120 q91 -120 91 -391 l0 -101 q0 -262 -91 -386.5 q-91 -124.5 -257 -124.5 ZM510 996 q-102 0 -161.5 -54 q-59.5 -54 -89.5 -125 l0 -570 q33 -71 94 -117.5 q61 -46.5 159 -46.5 q264 0 264 407 l0 101 q0 405 -266 405 Z" /><glyph glyph-name="q" unicode="q" d="M847 1082 l0 -1498 l-111 0 l0 542 q-44 -69 -112 -108 q-68 -39 -162 -39 q-166 0 -259.5 124.5 q-93.5 124.5 -93.5 386.5 l0 101 q0 271 93.5 391 q93.5 120 260.5 120 q183 0 276 -160 l5 140 l103 0 ZM221 490 q0 -407 263 -407 q95 0 156.5 45.5 q61.5 45.5 95.5 115.5 l0 581 q-31 69 -91 121 q-60 52 -159 52 q-265 0 -265 -407 l0 -101 Z" /><glyph glyph-name="r" unicode="r" d="M503 985 q-97 0 -157.5 -65 q-60.5 -65 -85.5 -168 l0 -752 l-111 0 l0 1082 l108 0 l3 -162 q36 84 98 133 q62 49 150 49 q41 0 67 -12 l-3 -112 q-32 7 -69 7 Z" /><glyph glyph-name="s" unicode="s" d="M690 266 q0 68 -53.5 118.5 q-53.5 50.5 -191.5 114.5 q-147 66 -229 129.5 q-82 63.5 -82 185.5 q0 122 87 205 q87 83 236 83 q159 0 248.5 -88.5 q89.5 -88.5 89.5 -227.5 l-111 0 q0 83 -59 147.5 q-59 64.5 -168 64.5 q-113 0 -162.5 -56 q-49.5 -56 -49.5 -124 q0 -66 46.5 -108 q46.5 -42 187.5 -109 q149 -65 235.5 -132 q86.5 -67 86.5 -196 q0 -134 -92 -213.5 q-92 -79.5 -246 -79.5 q-175 0 -267 94 q-92 94 -92 221 l111 0 q6 -127 85.5 -169 q79.5 -42 162.5 -42 q111 0 169 53.5 q58 53.5 58 128.5 Z" /><glyph glyph-name="t" unicode="t" d="M514 -4 q-43 -16 -110 -16 q-86 0 -143 60.5 q-57 60.5 -57 223.5 l0 718 l-166 0 l0 100 l166 0 l0 277 l112 0 l0 -277 l184 0 l0 -100 l-184 0 l0 -718 q0 -112 34.5 -144 q34.5 -32 79.5 -32 q22 0 43 3 q21 3 37 7 l4 -102 Z" /><glyph glyph-name="u" unicode="u" d="M731 0 l-2 130 q-42 -70 -112.5 -110 q-70.5 -40 -172.5 -40 q-134 0 -216.5 94 q-82.5 94 -82.5 315 l0 693 l111 0 l0 -695 q0 -172 60 -236 q60 -64 142 -64 q115 0 179 57.5 q64 57.5 90 147.5 l0 790 l111 0 l0 -1082 l-107 0 Z" /><glyph glyph-name="v" unicode="v" d="M816 1082 l-337 -1082 l-89 0 l-339 1082 l115 0 l270 -907 l266 907 l114 0 Z" /><glyph glyph-name="w" unicode="w" d="M1261 1082 l-265 -1082 l-93 0 l-236 861 l-4 26 l-5 -27 l-231 -860 l-93 0 l-264 1082 l113 0 l194 -836 l8 -58 l12 63 l222 831 l93 0 l218 -823 l16 -85 l13 76 l188 832 l114 0 Z" /><glyph glyph-name="x" unicode="x" d="M202 1082 l236 -436 l237 436 l131 0 l-306 -531 l319 -551 l-130 0 l-250 456 l-249 -456 l-131 0 l319 551 l-306 531 l130 0 Z" /><glyph glyph-name="y" unicode="y" d="M432 -173 q-16 -49 -44.5 -111 q-28.5 -62 -79 -107.5 q-50.5 -45.5 -133.5 -45.5 q-47 0 -79 13 l-1 102 q28 -7 50 -7 q81 0 125 49.5 q44 49.5 73 146.5 l43 141 l-340 1074 l121 0 l270 -899 l257 899 l119 0 l-381 -1255 Z" /><glyph glyph-name="z" unicode="z" d="M109 977 l0 105 l666 0 l0 -90 l-549 -888 l584 0 l0 -104 l-716 0 l0 91 l546 886 l-531 0 Z" /><glyph glyph-name="braceleft" unicode="{" d="M268 286 q0 117 -45 187 q-45 70 -146 70 l0 106 q101 0 146 69.5 q45 69.5 45 187.5 l0 226 q0 158 61 282.5 q61 124.5 225 182.5 l25 -80 q-109 -43 -154.5 -146 q-45.5 -103 -45.5 -239 l0 -226 q0 -105 -37 -188 q-37 -83 -119 -122 q82 -40 119 -123 q37 -83 37 -187 l0 -226 q0 -136 46.5 -237 q46.5 -101 155.5 -145 l-27 -81 q-164 58 -225 181.5 q-61 123.5 -61 281.5 l0 226 Z" /><glyph glyph-name="bar" unicode="|" d="M280 1456 l0 -1726 l-102 0 l0 1726 l102 0 Z" /><glyph glyph-name="braceright" unicode="}" d="M342 906 q0 -118 45 -187.5 q45 -69.5 146 -69.5 l0 -106 q-101 0 -146 -70 q-45 -70 -45 -187 l0 -226 q0 -158 -60.5 -281.5 q-60.5 -123.5 -225.5 -181.5 l-26 81 q109 44 155 145 q46 101 46 237 l0 226 q0 107 39.5 190 q39.5 83 126.5 120 q-87 37 -126.5 119.5 q-39.5 82.5 -39.5 190.5 l0 226 q0 136 -44.5 239 q-44.5 103 -154.5 146 l24 80 q165 -58 225.5 -182.5 q60.5 -124.5 60.5 -282.5 l0 -226 Z" /><glyph glyph-name="asciitilde" unicode="~" d="M980 765 l95 0 q0 -138 -68 -240.5 q-68 -102.5 -185 -102.5 q-74 0 -129 37 q-55 37 -122 108 q-50 56 -89.5 84 q-39.5 28 -88.5 28 q-154 0 -154 -229 l-99 -1 q0 142 67 241 q67 99 186 99 q74 0 130.5 -38.5 q56.5 -38.5 120.5 -106.5 q100 -113 178 -113 q74 0 116 64.5 q42 64.5 42 169.5 Z" /><glyph glyph-name="cent" unicode="¢" d="M861 335 q-6 -140 -92.5 -236.5 q-86.5 -96.5 -208.5 -114.5 l0 -229 l-111 0 l0 230 q-164 25 -247.5 175.5 q-83.5 150.5 -83.5 359.5 l0 42 q0 209 83.5 359.5 q83.5 150.5 247.5 176.5 l0 220 l111 0 l0 -220 q128 -18 212 -119.5 q84 -101.5 89 -261.5 l-106 0 q-7 131 -76.5 206 q-69.5 75 -170.5 75 q-153 0 -216 -132.5 q-63 -132.5 -63 -303.5 l0 -42 q0 -172 62.5 -304 q62.5 -132 217.5 -132 q93 0 166 64.5 q73 64.5 80 186.5 l106 0 Z" /><glyph glyph-name="sterling" unicode="£" d="M101 0 l0 107 l80 0 q44 14 62 99 q18 85 17 163 l-7 275 l-155 0 l0 107 l152 0 l-8 288 q0 207 97 322 q97 115 249 115 q160 0 247 -108 q87 -108 87 -280 l-114 0 q0 151 -68 216 q-68 65 -160 65 q-98 0 -161 -85 q-63 -85 -63 -245 l8 -288 l285 0 l0 -107 l-282 0 l7 -274 q3 -171 -54 -263 l625 0 l0 -107 l-844 0 Z" /><glyph glyph-name="yen" unicode="¥" d="M815 324 l-295 0 l0 -324 l-115 0 l0 324 l-291 0 l0 90 l291 0 l0 202 l-291 0 l0 91 l257 0 l-332 749 l129 0 l297 -709 l297 709 l128 0 l-332 -749 l257 0 l0 -91 l-295 0 l0 -202 l295 0 l0 -90 Z" /><glyph glyph-name="dieresis" unicode="¨" d="M138 1396 q0 81 82 81 q38 0 60.5 -23.5 q22.5 -23.5 22.5 -57.5 q0 -34 -22.5 -57.5 q-22.5 -23.5 -60.5 -23.5 q-82 0 -82 81 ZM575 1395 q0 34 22 58 q22 24 60 24 q39 0 61 -24 q22 -24 22 -58 q0 -81 -83 -81 q-82 0 -82 81 Z" /><glyph glyph-name="copyright" unicode="©" d="M107 729 q0 211 96 380.5 q96 169.5 257.5 268 q161.5 98.5 356.5 98.5 q196 0 357 -98.5 q161 -98.5 257 -268 q96 -169.5 96 -380.5 q0 -211 -96 -381 q-96 -170 -257 -269.5 q-161 -99.5 -357 -99.5 q-195 0 -356.5 99.5 q-161.5 99.5 -257.5 269.5 q-96 170 -96 381 ZM193 729 q0 -186 84.5 -336 q84.5 -150 226.5 -238 q142 -88 313 -88 q171 0 313 88 q142 88 226.5 238 q84.5 150 84.5 336 q0 186 -84.5 335.5 q-84.5 149.5 -226.5 236.5 q-142 87 -313 87 q-171 0 -313 -87 q-142 -87 -226.5 -236.5 q-84.5 -149.5 -84.5 -335.5 ZM1023 607 l99 0 q0 -157 -85.5 -235.5 q-85.5 -78.5 -229.5 -78.5 q-151 0 -242 107.5 q-91 107.5 -91 279.5 l0 97 q0 172 91 279.5 q91 107.5 242 107.5 q144 0 230 -78 q86 -78 86 -235 l-99 0 q0 222 -217 222 q-113 0 -173 -84.5 q-60 -84.5 -60 -210.5 l0 -98 q0 -128 60 -211.5 q60 -83.5 173 -83.5 q216 0 216 222 Z" /><glyph glyph-name="guillemotleft" unicode="«" d="M368 148 l-248 379 l0 19 l248 380 l94 0 l-228 -389 l228 -389 l-94 0 ZM631 148 l-248 379 l0 19 l248 380 l94 0 l-228 -389 l228 -389 l-94 0 Z" /><glyph glyph-name="registered" unicode="®" d="M103 729 q0 211 96 380.5 q96 169.5 257 268 q161 98.5 357 98.5 q195 0 356 -98.5 q161 -98.5 257 -268 q96 -169.5 96 -380.5 q0 -211 -96 -381 q-96 -170 -257 -269.5 q-161 -99.5 -356 -99.5 q-196 0 -357 99.5 q-161 99.5 -257 269.5 q-96 170 -96 381 ZM188 729 q0 -186 84.5 -336 q84.5 -150 226.5 -238 q142 -88 314 -88 q171 0 313 88 q142 88 226.5 238 q84.5 150 84.5 336 q0 186 -84.5 335.5 q-84.5 149.5 -226.5 236.5 q-142 87 -313 87 q-172 0 -314 -87 q-142 -87 -226.5 -236.5 q-84.5 -149.5 -84.5 -335.5 ZM838 666 l-187 0 l0 -345 l-98 0 l0 840 l257 0 q306 0 306 -248 q0 -133 -140 -197 q71 -26 99 -81 q28 -55 28 -125 l0 -46 q0 -84 17 -127 l0 -16 l-102 0 q-10 25 -12 73.5 q-2 48.5 -2 70.5 l0 44 q0 83 -37.5 120 q-37.5 37 -128.5 37 ZM651 1069 l0 -310 l180 0 q76 1 131.5 39 q55.5 38 55.5 112 q0 84 -45.5 121.5 q-45.5 37.5 -162.5 37.5 l-159 0 Z" /><glyph glyph-name="acute" unicode="´" d="M125 1256 l191 280 l145 0 l-232 -280 l-104 0 Z" /><glyph glyph-name="cedilla" unicode="¸" d="M148 0 l85 0 l-10 -64 q52 -8 94.5 -45 q42.5 -37 42.5 -126 q0 -90 -64.5 -145 q-64.5 -55 -184.5 -55 l-5 79 q62 0 112.5 28 q50.5 28 50.5 91 q0 58 -35.5 79.5 q-35.5 21.5 -109.5 29.5 l24 128 Z" /><glyph glyph-name="guillemotright" unicode="»" d="M210 945 l247 -385 l0 -19 l-247 -379 l-95 0 l228 389 l-228 394 l95 0 ZM483 945 l247 -385 l0 -19 l-247 -379 l-95 0 l228 389 l-228 394 l95 0 Z" /><glyph glyph-name="circumflex" unicode="&#x2c6;" d="M427 1527 l203 -259 l0 -10 l-99 0 l-139 183 l-137 -183 l-98 0 l0 13 l201 256 l69 0 Z" /><glyph glyph-name="ring" unicode="&#x2da;" d="M118 1396 q0 80 55.5 135.5 q55.5 55.5 137.5 55.5 q81 0 137 -55.5 q56 -55.5 56 -135.5 q0 -81 -56 -134.5 q-56 -53.5 -137 -53.5 q-82 0 -137.5 53.5 q-55.5 53.5 -55.5 134.5 ZM194 1396 q0 -48 33 -82 q33 -34 84 -34 q51 0 83.5 33.5 q32.5 33.5 32.5 82.5 q0 50 -32.5 84.5 q-32.5 34.5 -83.5 34.5 q-51 0 -84 -34.5 q-33 -34.5 -33 -84.5 Z" /><glyph glyph-name="tilde" unicode="&#x2dc;" d="M602 1493 l81 -6 q0 -97 -48.5 -156 q-48.5 -59 -118.5 -59 q-58 0 -91.5 27 q-33.5 27 -63 54.5 q-29.5 27.5 -77.5 27.5 q-38 0 -64.5 -31.5 q-26.5 -31.5 -26.5 -86.5 l-81 4 q0 96 48 155 q48 59 119 59 q53 0 87.5 -27.5 q34.5 -27.5 67 -55 q32.5 -27.5 77.5 -27.5 q38 0 64.5 33.5 q26.5 33.5 26.5 88.5 Z" /><glyph glyph-name="endash" unicode="&#x2013;" d="M999 789 l0 -104 l-841 0 l0 104 l841 0 Z" /><glyph glyph-name="emdash" unicode="&#x2014;" d="M1264 789 l0 -104 l-1122 0 l0 104 l1122 0 Z" /><glyph glyph-name="quoteleft" unicode="&#x2018;" d="M103 1120 l0 112 q0 197 123 323 l65 -53 q-39 -62 -58.5 -125 q-19.5 -63 -19.5 -142 l0 -115 l-110 0 Z" /><glyph glyph-name="quoteright" unicode="&#x2019;" d="M259 1536 l0 -116 q0 -194 -123 -323 l-66 53 q39 62 59 125 q20 63 20 143 l0 118 l110 0 Z" /><glyph glyph-name="quotesinglbase" unicode="&#x201a;" d="M243 205 l0 -116 q0 -194 -124 -323 l-65 53 q39 62 58.5 125.5 q19.5 63.5 19.5 142.5 l0 118 l111 0 Z" /><glyph glyph-name="quotedblleft" unicode="&#x201c;" d="M105 1120 l0 112 q0 197 123 323 l65 -53 q-39 -62 -58.5 -125 q-19.5 -63 -19.5 -142 l0 -115 l-110 0 ZM326 1120 l0 112 q0 197 123 323 l65 -53 q-39 -62 -58.5 -125 q-19.5 -63 -19.5 -142 l0 -115 l-110 0 Z" /><glyph glyph-name="quotedblright" unicode="&#x201d;" d="M265 1536 l0 -116 q0 -194 -123 -323 l-66 53 q39 62 59 125 q20 63 20 143 l0 118 l110 0 ZM480 1536 l0 -116 q0 -194 -123 -323 l-66 53 q39 62 59 125 q20 63 20 143 l0 118 l110 0 Z" /><glyph glyph-name="quotedblbase" unicode="&#x201e;" d="M243 237 l0 -148 q0 -202 -124 -332 l-65 53 q39 64 58.5 129.5 q19.5 65.5 19.5 147.5 l0 150 l111 0 ZM449 237 l0 -148 q0 -201 -123 -332 l-66 53 q39 64 58.5 129.5 q19.5 65.5 19.5 147.5 l0 150 l111 0 Z" /><glyph glyph-name="ellipsis" unicode="&#x2026;" d="M161 74 q0 35 22 60 q22 25 62 25 q40 0 63 -25 q23 -25 23 -60 q0 -83 -86 -83 q-84 0 -84 83 ZM510 74 q0 35 22 60 q22 25 62 25 q40 0 63 -25 q23 -25 23 -60 q0 -83 -86 -83 q-84 0 -84 83 ZM843 74 q0 35 22 60 q22 25 62 25 q40 0 63 -25 q23 -25 23 -60 q0 -83 -86 -83 q-84 0 -84 83 Z" /><glyph glyph-name="guilsinglleft" unicode="&#x2039;" d="M359 167 l-248 379 l0 19 l248 380 l94 0 l-228 -389 l228 -389 l-94 0 Z" /><glyph glyph-name="guilsinglright" unicode="&#x203a;" d="M196 945 l247 -385 l0 -19 l-247 -379 l-95 0 l228 389 l-228 394 l95 0 Z" /><glyph glyph-name="Euro" unicode="&#x20ac;" d="M92 816 l0 91 l159 0 q0 283 125.5 426 q125.5 143 324.5 143 q52 0 99.5 -8.5 q47.5 -8.5 96.5 -22.5 l-10 -111 q-92 35 -185 35 q-154 0 -245 -113.5 q-91 -113.5 -91 -346.5 l0 -2 l346 0 l0 -91 l-346 0 l0 -163 l346 0 l0 -91 l-346 0 l0 -15 q0 -230 91.5 -345.5 q91.5 -115.5 245.5 -115.5 q97 0 184 34 l10 -110 q-93 -31 -194 -31 q-199 0 -325.5 143 q-126.5 143 -126.5 425 l0 15 l-159 0 l0 91 l159 0 l0 163 l-159 0 Z" /><glyph glyph-name="trademark" unicode="&#x2122;" d="M865 919 l0 415 l-126 -415 l-44 0 l-125 422 l0 -422 l-64 0 l0 537 l80 0 l131 -428 l132 428 l79 0 l0 -537 l-63 0 ZM437 1456 l0 -69 l-131 0 l0 -468 l-65 0 l0 468 l-131 0 l0 69 l327 0 Z" /><glyph glyph-name="Agrave" unicode="à" d="M45 0 l464 1456 l106 0 l464 -1456 l-119 0 l-125 407 l-546 0 l-125 -407 l-119 0 ZM322 514 l480 0 l-240 782 l-240 -782 ZM447 1850 l191 -280 l-109 0 l-227 280 l145 0 Z" /><glyph glyph-name="Egrave" unicode="è" d="M173 0 l0 1456 l758 0 l0 -107 l-644 0 l0 -545 l564 0 l0 -107 l-564 0 l0 -590 l649 0 l0 -107 l-763 0 ZM423 1856 l191 -280 l-109 0 l-227 280 l145 0 Z" /><glyph glyph-name="Eacute" unicode="é" d="M173 0 l0 1456 l758 0 l0 -107 l-644 0 l0 -545 l564 0 l0 -107 l-564 0 l0 -590 l649 0 l0 -107 l-763 0 ZM469 1576 l191 280 l145 0 l-232 -280 l-104 0 Z" /><glyph glyph-name="Igrave" unicode="ì" d="M308 1456 l0 -1456 l-115 0 l0 1456 l115 0 ZM134 1856 l191 -280 l-109 0 l-227 280 l145 0 Z" /><glyph glyph-name="Ograve" unicode="ò" d="M1075 885 l0 -315 q0 -288 -126 -439.5 q-126 -151.5 -344 -151.5 q-215 0 -343.5 151.5 q-128.5 151.5 -128.5 439.5 l0 315 q0 288 127.5 439.5 q127.5 151.5 342.5 151.5 q219 0 345.5 -151.5 q126.5 -151.5 126.5 -439.5 ZM961 570 l0 317 q0 479 -358 479 q-169 0 -262.5 -120 q-93.5 -120 -93.5 -359 l0 -317 q0 -240 94.5 -360.5 q94.5 -120.5 263.5 -120.5 q356 0 356 481 ZM486 1861 l191 -280 l-109 0 l-227 280 l145 0 Z" /><glyph glyph-name="Oacute" unicode="ó" d="M1075 885 l0 -315 q0 -288 -126 -439.5 q-126 -151.5 -344 -151.5 q-215 0 -343.5 151.5 q-128.5 151.5 -128.5 439.5 l0 315 q0 288 127.5 439.5 q127.5 151.5 342.5 151.5 q219 0 345.5 -151.5 q126.5 -151.5 126.5 -439.5 ZM961 570 l0 317 q0 479 -358 479 q-169 0 -262.5 -120 q-93.5 -120 -93.5 -359 l0 -317 q0 -240 94.5 -360.5 q94.5 -120.5 263.5 -120.5 q356 0 356 481 ZM532 1581 l191 280 l145 0 l-232 -280 l-104 0 Z" /><glyph glyph-name="Ugrave" unicode="ù" d="M904 1456 l114 0 l0 -1026 q0 -246 -127 -348.5 q-127 -102.5 -306 -102.5 q-184 0 -308 102.5 q-124 102.5 -124 348.5 l0 1026 l114 0 l0 -1026 q0 -190 89.5 -267 q89.5 -77 228.5 -77 q140 0 229.5 77 q89.5 77 89.5 267 l0 1026 ZM474 1850 l191 -280 l-109 0 l-227 280 l145 0 Z" /><glyph glyph-name="agrave" unicode="à" d="M721 0 q-9 28 -14 68.5 q-5 40.5 -7 81.5 q-42 -67 -116.5 -119 q-74.5 -52 -181.5 -52 q-134 0 -215 77 q-81 77 -81 229 q0 150 103 248 q103 98 307 98 l183 0 l0 151 q0 216 -226 216 q-104 0 -169.5 -60 q-65.5 -60 -65.5 -155 l-111 1 q0 125 96.5 221.5 q96.5 96.5 254.5 96.5 q146 0 239 -73 q93 -73 93 -249 l0 -553 q0 -56 7 -116 q7 -60 21 -98 l0 -13 l-117 0 ZM415 88 q106 0 179.5 54.5 q73.5 54.5 104.5 130.5 l0 264 l-167 0 q-156 0 -235.5 -66 q-79.5 -66 -79.5 -177 q0 -206 198 -206 ZM390 1535 l191 -280 l-109 0 l-227 280 l145 0 Z" /><glyph glyph-name="egrave" unicode="è" d="M828 125 q-44 -59 -121 -102.5 q-77 -43.5 -201 -43.5 q-181 0 -295.5 120 q-114.5 120 -114.5 371 l0 124 q0 271 118 389.5 q118 118.5 273 118.5 q362 0 362 -477 l0 -93 l-642 0 l0 -62 q0 -197 83.5 -292 q83.5 -95 220.5 -95 q160 0 258 116 l59 -74 ZM487 998 q-118 0 -194.5 -83.5 q-76.5 -83.5 -84.5 -278.5 l530 0 l0 28 q-3 158 -64 246 q-61 88 -187 88 ZM378 1535 l191 -280 l-109 0 l-227 280 l145 0 Z" /><glyph glyph-name="eacute" unicode="é" d="M828 125 q-44 -59 -121 -102.5 q-77 -43.5 -201 -43.5 q-181 0 -295.5 120 q-114.5 120 -114.5 371 l0 124 q0 271 118 389.5 q118 118.5 273 118.5 q362 0 362 -477 l0 -93 l-642 0 l0 -62 q0 -197 83.5 -292 q83.5 -95 220.5 -95 q160 0 258 116 l59 -74 ZM487 998 q-118 0 -194.5 -83.5 q-76.5 -83.5 -84.5 -278.5 l530 0 l0 28 q-3 158 -64 246 q-61 88 -187 88 ZM424 1255 l191 280 l145 0 l-232 -280 l-104 0 Z" /><glyph glyph-name="igrave" unicode="ì" d="M271 1082 l0 -1082 l-112 0 l0 1082 l112 0 ZM100 1523 l191 -280 l-109 0 l-227 280 l145 0 Z" /><glyph glyph-name="ograve" unicode="ò" d="M107 485 l0 112 q0 245 109.5 375 q109.5 130 285.5 130 q177 0 286.5 -130 q109.5 -130 109.5 -375 l0 -112 q0 -245 -109.5 -375.5 q-109.5 -130.5 -285.5 -130.5 q-176 0 -286 130.5 q-110 130.5 -110 375.5 ZM218 597 l0 -112 q0 -185 74.5 -293.5 q74.5 -108.5 210.5 -108.5 q144 0 214 108.5 q70 108.5 70 293.5 l0 112 q0 182 -75 291.5 q-75 109.5 -210 109.5 q-135 0 -209.5 -109.5 q-74.5 -109.5 -74.5 -291.5 ZM383 1534 l191 -280 l-109 0 l-227 280 l145 0 Z" /><glyph glyph-name="oacute" unicode="ó" d="M107 485 l0 112 q0 245 109.5 375 q109.5 130 285.5 130 q177 0 286.5 -130 q109.5 -130 109.5 -375 l0 -112 q0 -245 -109.5 -375.5 q-109.5 -130.5 -285.5 -130.5 q-176 0 -286 130.5 q-110 130.5 -110 375.5 ZM218 597 l0 -112 q0 -185 74.5 -293.5 q74.5 -108.5 210.5 -108.5 q144 0 214 108.5 q70 108.5 70 293.5 l0 112 q0 182 -75 291.5 q-75 109.5 -210 109.5 q-135 0 -209.5 -109.5 q-74.5 -109.5 -74.5 -291.5 ZM429 1254 l191 280 l145 0 l-232 -280 l-104 0 Z" /><glyph glyph-name="ugrave" unicode="ù" d="M731 0 l-2 130 q-42 -70 -112.5 -110 q-70.5 -40 -172.5 -40 q-134 0 -216.5 94 q-82.5 94 -82.5 315 l0 693 l111 0 l0 -695 q0 -172 60 -236 q60 -64 142 -64 q115 0 179 57.5 q64 57.5 90 147.5 l0 790 l111 0 l0 -1082 l-107 0 ZM384 1536 l191 -280 l-109 0 l-227 280 l145 0 Z" /></font>
</defs>
</svg>
